<?xml version="1.0" encoding="utf-8"?>
<!-- Generator: Adobe Illustrator 24.0.0, SVG Export Plug-In . SVG Version: 6.00 Build 0)  -->
<svg version="1.1" id="Layer_1" xmlns="http://www.w3.org/2000/svg" xmlns:xlink="http://www.w3.org/1999/xlink" x="0px" y="0px"
	 viewBox="0 0 1000 846" style="enable-background:new 0 0 1000 846;" xml:space="preserve">
<style type="text/css">
	.st0{fill:#F1BCAB;}
	.st1{fill:url(#SVGID_1_);}
	.st2{fill:#F3B4A0;}
	.st3{fill:url(#SVGID_2_);}
	.st4{fill:url(#SVGID_3_);}
	.st5{fill:url(#SVGID_4_);}
	.st6{fill:#0D0D0D;}
	.st7{fill:#202020;}
	.st8{fill:#939393;fill-opacity:0.13;}
	.st9{fill:url(#SVGID_5_);}
</style>
<path class="st0" d="M617.6,842.8h-30.8c-0.8,0-1.4,0.6-1.4,1.4l0,0c0,0.8,0.6,1.4,1.4,1.4h30.8c0.8,0,1.4-0.6,1.4-1.4l0,0
	C618.9,843.4,618.3,842.8,617.6,842.8z"/>
<path class="st0" d="M382.4,842.8h30.8c0.8,0,1.4,0.6,1.4,1.4l0,0c0,0.8-0.6,1.4-1.4,1.4h-30.8c-0.8,0-1.4-0.6-1.4-1.4l0,0
	C381.1,843.4,381.7,842.8,382.4,842.8z"/>
<linearGradient id="SVGID_1_" gradientUnits="userSpaceOnUse" x1="-62.961" y1="630.6009" x2="-62.961" y2="599.8361" gradientTransform="matrix(4.9882 0 0 -4.9882 814.0648 3827.1133)">
	<stop  offset="0" style="stop-color:#D4927D"/>
	<stop  offset="0.3231" style="stop-color:#E9A892"/>
	<stop  offset="0.5144" style="stop-color:#EEAD99"/>
	<stop  offset="0.7182" style="stop-color:#E7A48F"/>
	<stop  offset="0.8922" style="stop-color:#DD9A85"/>
	<stop  offset="0.9195" style="stop-color:#F3B8A2"/>
	<stop  offset="0.9368" style="stop-color:#F9CFC2"/>
	<stop  offset="0.9608" style="stop-color:#ECAA92"/>
	<stop  offset="1" style="stop-color:#9D5640"/>
</linearGradient>
<path class="st1" d="M379.5,681.5V835l60.3,5.3h120.5l60.3-5.3V681.5H379.5z"/>
<rect x="379.5" y="835" class="st2" width="241" height="9.6"/>
<linearGradient id="SVGID_2_" gradientUnits="userSpaceOnUse" x1="-87.5323" y1="527.5042" x2="-78.6615" y2="527.5042" gradientTransform="matrix(6.1402 0 0 -1.0313 916.962 1383.7769)">
	<stop  offset="0" style="stop-color:#EBB59E"/>
	<stop  offset="4.735043e-02" style="stop-color:#D69476"/>
	<stop  offset="0.1057" style="stop-color:#AD6650"/>
	<stop  offset="0.1662" style="stop-color:#DC9B85"/>
	<stop  offset="0.2204" style="stop-color:#FFC6B5"/>
	<stop  offset="0.4368" style="stop-color:#E9A691"/>
	<stop  offset="1" style="stop-color:#F3B4A0"/>
</linearGradient>
<rect x="379.5" y="835" class="st3" width="54.5" height="9.6"/>
<linearGradient id="SVGID_3_" gradientUnits="userSpaceOnUse" x1="-586.2318" y1="-176.6179" x2="171.4557" y2="-176.6179" gradientTransform="matrix(1.3198 0 0 -1.3198 773.712 393.4563)">
	<stop  offset="0" style="stop-color:#F1AF99"/>
	<stop  offset="0.5" style="stop-color:#F2B5A1"/>
	<stop  offset="1" style="stop-color:#F1AE98"/>
</linearGradient>
<path class="st4" d="M1000,585.2l-250-18.5H250L0,585.2v83.4c0,9.8,7.9,17.8,17.8,17.8h964.5c9.8,0,17.8-7.9,17.8-17.8L1000,585.2z"
	/>
<linearGradient id="SVGID_4_" gradientUnits="userSpaceOnUse" x1="-373.2607" y1="-575.2794" x2="-368.7557" y2="-570.7745">
	<stop  offset="0" style="stop-color:#F7F7F8"/>
	<stop  offset="1" style="stop-color:#EFEFF0"/>
</linearGradient>
<path class="st5" d="M17.8,0.4C7.9,0.4,0,8.3,0,18.1v567.1h1000V18.1c0-9.8-7.9-17.8-17.8-17.8L17.8,0.4z"/>
<rect x="23.7" y="24" class="st6" width="952.7" height="537.5"/>
<circle class="st7" cx="500" cy="12.2" r="3.5"/>
<path class="st8" d="M17.8,0.4C7.9,0.4,0,8.3,0,18.1v650.5c0,9.8,7.9,17.8,17.8,17.8h964.5c9.8,0,17.8-7.9,17.8-17.8V18.1
	c0-9.8-7.9-17.8-17.8-17.8L17.8,0.4z M17.8,3h964.5c8.4,0,15.1,6.7,15.1,15.1v650.5c0,8.4-6.7,15.1-15.1,15.1H17.8
	c-8.4,0-15.1-6.7-15.1-15.1V18.1C2.6,9.7,9.3,3,17.8,3L17.8,3z"/>
<linearGradient id="SVGID_5_" gradientUnits="userSpaceOnUse" x1="-91.1153" y1="527.5042" x2="-82.2445" y2="527.5042" gradientTransform="matrix(-6.1402 0 0 -1.0313 61.038 1383.7769)">
	<stop  offset="0" style="stop-color:#EBB59E"/>
	<stop  offset="4.735043e-02" style="stop-color:#D69476"/>
	<stop  offset="0.1057" style="stop-color:#AD6650"/>
	<stop  offset="0.1662" style="stop-color:#DC9B85"/>
	<stop  offset="0.2204" style="stop-color:#FFC6B5"/>
	<stop  offset="0.4368" style="stop-color:#E9A691"/>
	<stop  offset="1" style="stop-color:#F3B4A0"/>
</linearGradient>
<rect x="566" y="835" class="st9" width="54.5" height="9.6"/>
</svg>
